# xmcd
#
# Track frame offsets:
#	182
#	10107
#	20785
#	30462
#	41732
#	54390
#	64962
#	81647
#	91482
#	107097
#	121157
#	134312
#	148415
#	161027
#	172952
#	185322
#	218885
#	230432
#
# Disc length: 3204 seconds
#
# Revision: 9
# Processed by: cddbd v1.5.2PL0 Copyright (c) Steve Scherf et al.
# Submitted via: audiograbber 1.83.01
#
DISCID=000c8212
DTITLE=Various Artist - The Blues Collection 04 -- Buddy Guy - Stone Crazy
DYEAR=1994
DGENRE=Blues
TTITLE0=Buddy Guy - First Time I Met The Blues [mono]
TTITLE1=Buddy Guy - I Got My Eyes On You [mono]
TTITLE2=Buddy Guy - Slop Around [mono]
TTITLE3=Buddy Guy - Watch Yourself [mono]
TTITLE4=Buddy Guy - When My Left Eye Jumps [mono]
TTITLE5=Buddy Guy - Hard But It's Fair [mono]
TTITLE6=Buddy Guy - Every Girl I See
TTITLE7=Buddy Guy - Baby (Baby, Baby, Baby) [mono]
TTITLE8=Buddy Guy - Leave My Girl Alone
TTITLE9=Buddy Guy - Hully Gully [mono]
TTITLE10=Buddy Guy - Let Me Love You Baby [mono]
TTITLE11=Buddy Guy - I Got A Strange Feeling [mono]
TTITLE12=Buddy Guy - I Suffer With The Blues
TTITLE13=Buddy Guy - Ten Years Ago [mono]
TTITLE14=Buddy Guy - Mother-In-Law Blues
TTITLE15=Buddy Guy - Stone Crazy
TTITLE16=Buddy Guy - No Lie [mono]
TTITLE17=Buddy Guy - $100 Bill
EXTD=
EXTT0=
EXTT1=
EXTT2=
EXTT3=
EXTT4=
EXTT5=
EXTT6=
EXTT7=
EXTT8=
EXTT9=
EXTT10=
EXTT11=
EXTT12=
EXTT13=
EXTT14=
EXTT15=
EXTT16=
EXTT17=
PLAYORDER=
